<?xml version="1.0" encoding="UTF-8" standalone="no"?>
<!-- Created with Inkscape (http://www.inkscape.org/) -->

<svg
   width="1965"
   height="453"
   viewBox="0 0 1965 453"
   version="1.1"
   id="svg1"
   xml:space="preserve"
   inkscape:version="1.3.2 (091e20ef0f, 2023-11-25, custom)"
   sodipodi:docname="positron.svg"
   xmlns:inkscape="http://www.inkscape.org/namespaces/inkscape"
   xmlns:sodipodi="http://sodipodi.sourceforge.net/DTD/sodipodi-0.dtd"
   xmlns="http://www.w3.org/2000/svg"
   xmlns:svg="http://www.w3.org/2000/svg"><sodipodi:namedview
     id="namedview1"
     pagecolor="#ffffff"
     bordercolor="#000000"
     borderopacity="0.25"
     inkscape:showpageshadow="2"
     inkscape:pageopacity="0.0"
     inkscape:pagecheckerboard="0"
     inkscape:deskcolor="#d1d1d1"
     inkscape:document-units="px"
     inkscape:zoom="0.54273186"
     inkscape:cx="910.21006"
     inkscape:cy="496.56197"
     inkscape:window-width="1920"
     inkscape:window-height="1011"
     inkscape:window-x="0"
     inkscape:window-y="0"
     inkscape:window-maximized="1"
     inkscape:current-layer="layer1" /><defs
     id="defs1" /><g
     inkscape:label="Layer 1"
     inkscape:groupmode="layer"
     id="layer1"><rect
       style="fill:#4a90d9;stroke-width:0.7"
       id="rect1"
       width="1965"
       height="453"
       x="0"
       y="0" /><g
       style="fill:#ffffff"
       id="g1"
       transform="matrix(0.44579669,0,0,0.44579669,12.517693,440.48252)"><path
         d="m 480,-281 59,-59 h 81 v -81 l 59,-59 -59,-59 v -81 h -81 l -59,-59 -59,59 h -81 v 81 l -59,59 59,59 v 81 h 81 z m 0,253 -134,-132 H 160 V -346 L 28,-480 160,-614 v -186 h 186 l 134,-132 134,132 h 186 v 186 l 132,134 -132,134 v 186 H 614 Z"
         id="path1" /></g><text
       xml:space="preserve"
       style="font-size:279.955px;font-family:Cantarell;-inkscape-font-specification:Cantarell;fill:#4a90d9;stroke-width:0.898942"
       x="697.99414"
       y="324.34427"
       id="text1"><tspan
         id="tspan1"
         x="697.99414"
         y="324.34427"
         style="font-style:normal;font-variant:normal;font-weight:normal;font-stretch:normal;font-size:279.955px;font-family:Cantarell;-inkscape-font-specification:'Cantarell, Normal';font-variant-ligatures:normal;font-variant-caps:normal;font-variant-numeric:normal;font-variant-east-asian:normal;fill:#ffffff;fill-opacity:1;stroke-width:0.898942"
         sodipodi:role="line">Positron</tspan></text></g></svg>
